# xmcd
#
# Track frame offsets: 
#        150
#        778
#        3618
#        8004
#        21337
#        29889
#        66906
#        73945
#        74711
#        89710
#        96870
#        104959
#        129365
#        136343
#        148326
#        149103
#        153905
#        162705
#        171873
#        188377
#        201828
#        222244
#        223134
#        234213
#        280375
#        295698
#        296647
#
# Disc length: 4320 seconds
#
# Revision: 0
# Processed by: cddbd v1.5.2PL0 Copyright (c) Steve Scherf et al.
# Submitted via: ExactAudioCopy v0.95b3
#
DISCID=b310de1b
DTITLE=The Beatles  - AB  Road - Complete Purple Chick Set v1.1 Jan.23
DTITLE=Various Artist - D1  FLAC
DYEAR=1900
DGENRE=
TTITLE0=Roll announcement
TTITLE1=Slate and horse
TTITLE2=Street noise
TTITLE3=Dialogue
TTITLE4=Octopus's Garden 23.01
TTITLE5=Hey, Hey Georgie 23.02
TTITLE6=Two Of Us 23.03
TTITLE7=Roll announcement
TTITLE8=I've Got A Feeling 23.04
TTITLE9=I've Got A Feeling 23.05
TTITLE10=Get Back 23.06
TTITLE11=Get Back 23.07
TTITLE12=Get Back 23.08
TTITLE13=Get Back 23.09
TTITLE14=Roll announcement
TTITLE15=Get Back 23.10
TTITLE16=If You Need Me 23.11
TTITLE17=Get Back 23.12
TTITLE18=Get Back 23.13
TTITLE19=Get Back 23.14
TTITLE20=Get Back - Reach Out 23.15
TTITLE21=Roll announcement
TTITLE22=Get Back 23.16
TTITLE23=Get Back 23.17
TTITLE24=Get Back 23.18
TTITLE25=Get Back 23.19
TTITLE26=Rehearsals
EXTD=
EXTT0=
EXTT1=
EXTT2=
EXTT3=
EXTT4=
EXTT5=
EXTT6=
EXTT7=
EXTT8=
EXTT9=
EXTT10=
EXTT11=
EXTT12=
EXTT13=
EXTT14=
EXTT15=
EXTT16=
EXTT17=
EXTT18=
EXTT19=
EXTT20=
EXTT21=
EXTT22=
EXTT23=
EXTT24=
EXTT25=
EXTT26=
PLAYORDER=
